PathFileType	4	(X/Y/Z)	41_2_62_p1_0-302_filt_butterworth.trc
DataRate	CameraRate	NumFrames	NumMarkers	Units	OrigDataRate	OrigDataStartFrame	OrigNumFrames
55.0	55.0	6	27	m	55.0	188	302
Frame#	Time	RHip			RKnee			RAnkle			RBigToe			RSmallToe			RHeel			LHip			LKnee			LAnkle			LBigToe			LSmallToe			LHeel			Neck			Head			Nose			RShoulder			RElbow			RWrist			RThumb			RIndex			RPinky			LShoulder			LElbow			LWrist			LThumb			LIndex			LPinky			
		X1	Y1	Z1	X2	Y2	Z2	X3	Y3	Z3	X4	Y4	Z4	X5	Y5	Z5	X6	Y6	Z6	X7	Y7	Z7	X8	Y8	Z8	X9	Y9	Z9	X10	Y10	Z10	X11	Y11	Z11	X12	Y12	Z12	X13	Y13	Z13	X14	Y14	Z14	X15	Y15	Z15	X16	Y16	Z16	X17	Y17	Z17	X18	Y18	Z18	X19	Y19	Z19	X20	Y20	Z20	X21	Y21	Z21	X22	Y22	Z22	X23	Y23	Z23	X24	Y24	Z24	X25	Y25	Z25	X26	Y26	Z26	X27	Y27	Z27	
188	3.418181818181818	0.33587523082015847	0.9845395325425994	0.4567553441364783	0.34764009847446425	0.5239975232528038	0.56150968059666	0.37603429318622544	0.11350879802402931	0.658405648135552	0.3414475385786356	0.08165864653672705	0.5214379604284961	0.40563593793660324	0.07154287273322102	0.5480478751993009	0.3673372811318775	0.023857197216125534	0.7640361702738923	0.14155942034163493	0.986107312122539	0.4597420729595888	0.16702022890419851	0.513294270019739	0.645703816343619	0.1801344334730106	0.08901443460179335	0.7102355702030619	0.1942446661198545	0.0893906243157086	0.541059084477822	0.14398128609303731	0.07602848433192147	0.5816350291469357	0.194697993144941	0.04396494979505693	0.7450036138454829	0.229845328217129	1.5263056526768002	0.4308410144719282	0.20802399557138207	1.7735302188724038	0.41406602275482884	0.20570576311082045	1.6427279610079244	0.37010319844183853	0.37568820319327306	1.4175021075091032	0.4718499128584446	0.4262323824192149	1.1485135771229744	0.44474209196231157	0.3644121182538198	0.9260179268974936	0.3965043499518325	0.24760451422722346	0.8785519018704934	0.3140195372846857	0.23485290650114576	0.8428387690381213	0.34422506991675994	0.260937867203785	0.8351127146838537	0.39482082762454523	0.08451080020676242	1.4144012810809925	0.4760842743288066	0.03767764738620593	1.159237125938629	0.4649223993417663	0.11524552314893657	0.9309294010243451	0.38503268600777013	0.1912360576571345	0.9127106821677771	0.3428357556799459	0.20361740205498405	0.8481253151379384	0.33601892203416767	0.16214140234520294	0.8215446281003413	0.3972337397591829	
189	3.4363636363636365	0.3354207460879196	0.9849421804503342	0.4569264075220508	0.3476415559640889	0.5242574508014697	0.5613952546446631	0.3761408218922844	0.1130780312192937	0.6585177269339445	0.3415101330032267	0.08194786979939815	0.5215255496730764	0.40556071808484623	0.07216017807449551	0.5480003507978295	0.36769171927200245	0.02373268900672012	0.7637514333689264	0.14137653335922531	0.9865218266856799	0.45981061009544716	0.16718749959181525	0.5142510166217519	0.6448081883485285	0.17982094405165464	0.08897386502213164	0.7113766798864899	0.19424852110547147	0.08937584386583924	0.541081496058002	0.1440005299781728	0.07597367837217137	0.5817078521831688	0.1948908997836129	0.04419045726411317	0.7451410940393006	0.22983606524409034	1.5257237455446022	0.4306298287528548	0.2083600324663121	1.7729549284913007	0.41423207218286506	0.20551698702094773	1.6429575915682058	0.37030362382278553	0.37577005816478376	1.417978965975536	0.471985251257084	0.425528003360539	1.14841380805612	0.4449664771341211	0.36444600500683144	0.9254861268186994	0.39658171291964983	0.24827069265250112	0.8758000673285367	0.31757835054588124	0.23545272568966982	0.8418430554826475	0.3474270170936535	0.26005680142612786	0.8335815427914974	0.39861924516085206	0.08450631575247833	1.414412198932782	0.47610735453510183	0.038255929218363086	1.1596592983535134	0.4621794380055358	0.11427522752357483	0.9299884635956187	0.38915743592343865	0.18999760520985293	0.9124941130087121	0.34295774143917707	0.20357330359871373	0.8481500540755388	0.3360194973324582	0.16140549097479054	0.8215780043119509	0.39734866795743157	
190	3.4545454545454546	0.3351098837000755	0.9852114641883032	0.45714992538452337	0.34749974561156943	0.5245776585430111	0.5612526037178295	0.37642409581528635	0.11278374667732606	0.6587416544396203	0.3415373023561281	0.0824419703388531	0.5221415330492428	0.4055126759218307	0.07270895338542956	0.5480541502822931	0.3682091089793185	0.02351774035655938	0.7639692091867532	0.14117663443171194	0.9867959561203037	0.4598773333022172	0.16731242842235947	0.5151224308339263	0.6441316195150043	0.17948647094487014	0.088887042835914	0.7126083147887524	0.19424904424044886	0.08936532777986719	0.5410815211408502	0.14401299328257955	0.07596655671993771	0.5816851406480845	0.19514844593378441	0.04434995441092297	0.7452797745409889	0.2298404845085762	1.524679037974223	0.4304670094486624	0.20882109838516372	1.7725191090744101	0.41462854892639517	0.20566721519295583	1.642773320452925	0.37004303326215277	0.37565306494722	1.4187659515679436	0.471703827142248	0.42507070541868447	1.1485076907616782	0.4449404525326213	0.3644602640442982	0.9254915246629402	0.39669805297244765	0.248687636016589	0.872943663398747	0.32235928469931874	0.23606741391362202	0.8405520117969967	0.3516961235989953	0.25911445852491893	0.8321771622240622	0.4007943099998847	0.08450310257330697	1.4143933431787818	0.4761371137682415	0.038097468637372824	1.1596917311181356	0.4601862650506823	0.11357204729119041	0.9287735451735648	0.3931578303065546	0.18853477936818624	0.9122947250286594	0.34308717603747735	0.20361586903363743	0.8481296853308613	0.3360386261036645	0.1606261945098959	0.821623267174467	0.3974784474145066	
191	3.4727272727272727	0.3348832966997043	0.98539240973585	0.457268600149663	0.3471812342576459	0.5250551967860559	0.5610535902757974	0.3768659496227129	0.11277929287195972	0.6589688948081757	0.34140888284012016	0.08323528931155356	0.5226996804258153	0.40548978952502707	0.07321988601487768	0.5482469224960327	0.3688092985391186	0.02331025589475761	0.7646288709265421	0.14090205310439702	0.9868767615777406	0.460077090258655	0.16738019520458877	0.5159208386311122	0.6437190914287375	0.1792006664797601	0.08879462285771433	0.7136829167025693	0.19424816546559903	0.08935478186764124	0.5410653724120333	0.14401603002525562	0.07601376818519079	0.5815627012490892	0.1954674860024368	0.044467047069067143	0.7453363537847927	0.2298888725159529	1.5232996716178606	0.4303884634384696	0.20943212138125	1.7722751640257157	0.4149999755441161	0.20636323655001143	1.6422604193503088	0.3690689092865629	0.37523288206741173	1.4196703280468765	0.4706790601367984	0.4248338545744968	1.1487493713927117	0.4449023234804634	0.3644091312936699	0.9260958754997243	0.39670882883173425	0.24884791928693822	0.870385615305645	0.3274867154357136	0.23679993033611446	0.8391298151347267	0.35648212530726453	0.258396367612352	0.8311427161672194	0.4012442969781937	0.08449893102067846	1.4143260856591384	0.4761627251436487	0.03739013504401209	1.1594173029989523	0.4592353337452801	0.11332564765912642	0.9274590846381928	0.39664102849580707	0.18722269835678457	0.9121087518954668	0.34323112093953223	0.2037605507490807	0.8480605487355591	0.336094251020459	0.15985109175562745	0.8216230507694665	0.3975772868265476	
192	3.4909090909090907	0.3347036419650868	0.9855591499911032	0.4572709743603196	0.3467136264746711	0.5257040225607696	0.5607899005392766	0.3773872408707177	0.11305193587622377	0.659160520555034	0.3412451114071098	0.08420930400908316	0.5229536862298679	0.4054926973780121	0.07361951478038764	0.5485689574602791	0.3692927995653195	0.023085610442630022	0.7655127445688716	0.14047927273747984	0.9867711634927305	0.46048041578873417	0.16737582539873677	0.5166236390014171	0.6436245972229762	0.17897962555012217	0.08873277213580076	0.7145832892150166	0.19424695211351067	0.08934423160994354	0.5410422498018918	0.14400843865626647	0.07609871024374007	0.581381368685225	0.19584251238698513	0.04457612492238798	0.7453154515812717	0.23000168610249364	1.5218235041259014	0.4304316163125604	0.21023275522314763	1.7722134348383647	0.4148833065394242	0.20758042118914716	1.6415407456300495	0.3674721812375631	0.37454773823158816	1.4203521272639192	0.4689076225608432	0.42469758170248917	1.1490599879660592	0.4449678739485651	0.3642941052884977	0.9271538506569742	0.3965557021981784	0.2488942299606543	0.8685200893650314	0.3315265694624892	0.237692354836133	0.837787461436669	0.3610788760761839	0.25811536003215096	0.8305507920027829	0.400656232303937	0.08449585040619914	1.4142645371979867	0.4761763679696344	0.03638034822751746	1.1590434371297615	0.45902901163605503	0.11359227104768825	0.9262109974818791	0.39938731747258643	0.1864236788434509	0.911953158473546	0.34339425437467047	0.20409767570474519	0.8479814110951316	0.33618452420703465	0.15913149580644367	0.8215995379061903	0.39758278829383925	
193	3.5090909090909093	0.33456935948417715	0.9857333284922346	0.457240999102053	0.3461981009086217	0.5264062860246852	0.560501507368892	0.3778798824768132	0.11348688988422943	0.6592563544086484	0.3411701789757665	0.08516356903323791	0.5229990781775884	0.4055151052100381	0.07381560047132078	0.5489526023282729	0.3695048872978006	0.022822082166093348	0.766437678361945	0.13988852124314574	0.9865575111314155	0.46102214687162574	0.16729393796580977	0.5171552336048645	0.6438772828993101	0.17882236962718506	0.08872727907837966	0.7153438715012798	0.1942454094152714	0.08933558385906785	0.5410216650385764	0.1439874870931057	0.07619017527359254	0.5812067366875033	0.19626556784568927	0.044685765844130726	0.74535681096055	0.2301083641206189	1.5205737008241487	0.4306038937038304	0.21120890582663157	1.7722375877117198	0.4139738942090426	0.20913660373395745	1.6407164537072976	0.3655293809326797	0.37372222692316825	1.4205198633597949	0.4666306049251658	0.42457027133485087	1.149326634125833	0.4452203154972728	0.3642145452125227	0.9282675440099698	0.3964412418131132	0.2491209481754053	0.8676841599142069	0.33339808276771093	0.23874504041938852	0.8366827167099788	0.3649996760241395	0.2583321076780389	0.8302151935169456	0.40003073363449887	0.08450048286723505	1.414329971967575	0.47617530330432484	0.03524381400089441	1.158748108905034	0.4587191352257671	0.11424656518537474	0.9251967562035759	0.4012237968304447	0.1863273520029281	0.9118595175094344	0.3435685615912747	0.20465251703682333	0.8479200377711862	0.33628804316660255	0.15861652877585192	0.8216007603145915	0.3974176619372878	
